<?xml version="1.0" encoding="utf-8"?>
<!-- Generator: Adobe Illustrator 16.0.3, SVG Export Plug-In . SVG Version: 6.00 Build 0)  -->
<!DOCTYPE svg PUBLIC "-//W3C//DTD SVG 1.1//EN" "http://www.w3.org/Graphics/SVG/1.1/DTD/svg11.dtd">
<svg version="1.1" id="Layer_2" xmlns="http://www.w3.org/2000/svg" xmlns:xlink="http://www.w3.org/1999/xlink" x="0px" y="0px"
	 width="311.667px" height="295.333px" viewBox="0 0 311.667 295.333" enable-background="new 0 0 311.667 295.333"
	 xml:space="preserve">
<path d="M207.768,4.667H18.232C10.18,4.667,3,9.318,3,15.674v260.075c0,6.356,7.18,11.918,15.232,11.918h189.536
	c8.054,0,14.232-5.562,14.232-11.918V15.674C222,9.318,215.821,4.667,207.768,4.667z M113.047,281.896
	c-4.102,0-7.427-3.325-7.427-7.428c0-4.101,3.325-7.426,7.427-7.426c4.102,0,7.426,3.325,7.426,7.426
	C120.473,278.571,117.149,281.896,113.047,281.896z M199,262.667H24v-234h175V262.667z"/>
<g>
	<path fill="#FFFFFF" d="M512,293.877c0,3.749-3.04,6.789-6.789,6.789h-88.422c-3.749,0-6.789-3.04-6.789-6.789V140.456
		c0-3.749,3.04-6.789,6.789-6.789h88.422c3.749,0,6.789,3.04,6.789,6.789V293.877z"/>
	<g>
		<path d="M505.211,133.667h-88.422c-3.749,0-6.789,3.04-6.789,6.789v153.422c0,3.749,3.04,6.789,6.789,6.789h88.422
			c3.749,0,6.789-3.04,6.789-6.789V140.456C512,136.707,508.96,133.667,505.211,133.667z M460.89,282.601
			c-17.187,0-31.12-13.934-31.12-31.12s13.934-31.119,31.12-31.119s31.119,13.933,31.119,31.119S478.076,282.601,460.89,282.601z
			 M503,204.667h-85v-64h85V204.667z"/>
		<circle cx="460.692" cy="251.456" r="11.365"/>
	</g>
</g>
<path d="M299,120.667h-65c-5.522,0-10,4.478-10,10v151c0,5.522,4.478,10,10,10h65c5.522,0,10-4.478,10-10v-151
	C309,125.144,304.522,120.667,299,120.667z M267.125,287.167c-3.245,0-5.875-2.631-5.875-5.875s2.63-5.875,5.875-5.875
	s5.875,2.631,5.875,5.875S270.37,287.167,267.125,287.167z M303,273.667h-75v-133h75V273.667z"/>
</svg>
